<?xml version="1.0" encoding="UTF-8" standalone="no"?>
<!-- Created with Inkscape (http://www.inkscape.org/) -->

<svg
   xmlns:dc="http://purl.org/dc/elements/1.1/"
   xmlns:cc="http://creativecommons.org/ns#"
   xmlns:rdf="http://www.w3.org/1999/02/22-rdf-syntax-ns#"
   xmlns:svg="http://www.w3.org/2000/svg"
   xmlns="http://www.w3.org/2000/svg"
   xmlns:xlink="http://www.w3.org/1999/xlink"
   xmlns:sodipodi="http://sodipodi.sourceforge.net/DTD/sodipodi-0.dtd"
   xmlns:inkscape="http://www.inkscape.org/namespaces/inkscape"
   width="31.179993mm"
   height="31.273355mm"
   viewBox="0 0 110.48029 110.8111"
   id="svg2"
   version="1.1"
   inkscape:version="0.91 r13725"
   sodipodi:docname="Apfel.svg">
  <title
     id="title4136">apple - coloured</title>
  <defs
     id="defs4">
    <linearGradient
       inkscape:collect="always"
       id="linearGradient6883">
      <stop
         style="stop-color:#ffffff;stop-opacity:0.82949311"
         offset="0"
         id="stop6885" />
      <stop
         style="stop-color:#ffffff;stop-opacity:0.23963134"
         offset="1"
         id="stop6887" />
    </linearGradient>
    <linearGradient
       inkscape:collect="always"
       id="linearGradient6871">
      <stop
         style="stop-color:#ff0000;stop-opacity:1;"
         offset="0"
         id="stop6873" />
      <stop
         id="stop6879"
         offset="0.41365832"
         style="stop-color:#b60000;stop-opacity:1" />
      <stop
         style="stop-color:#940000;stop-opacity:1"
         offset="0.66053253"
         id="stop6881" />
      <stop
         style="stop-color:#960000;stop-opacity:1"
         offset="1"
         id="stop6875" />
    </linearGradient>
    <pattern
       inkscape:collect="always"
       xlink:href="#Polkadots-large"
       id="pattern6850"
       patternTransform="matrix(0.98438802,0,0,0.80761135,124.04062,1067.6554)" />
    <pattern
       inkscape:collect="always"
       xlink:href="#Polkadots-large"
       id="pattern6621"
       patternTransform="matrix(1.8682715,0,0,1.2369261,102.38669,1041.5202)" />
    <pattern
       inkscape:collect="always"
       xlink:href="#Polkadots-large"
       id="pattern6439"
       patternTransform="matrix(2.1428567,0,0,1.7857138,112.50001,1030)" />
    <pattern
       inkscape:collect="always"
       xlink:href="#Polkadots-large"
       id="pattern6116"
       patternTransform="matrix(0.89786905,0,0,0.9004072,74.708494,1001.0436)" />
    <pattern
       inkscape:collect="always"
       xlink:href="#Polkadots-large"
       id="pattern5934"
       patternTransform="matrix(1.4285709,0,0,2.1428567,-13.214286,1056.4287)" />
    <pattern
       inkscape:collect="always"
       xlink:href="#Polkadots-large"
       id="pattern5842"
       patternTransform="matrix(1.4642852,0,0,2.0714281,43.052984,1040.9648)" />
    <pattern
       inkscape:stockid="Polka dots, large"
       id="Polkadots-large"
       patternTransform="translate(0,0) scale(10,10)"
       height="10"
       width="10"
       patternUnits="userSpaceOnUse"
       inkscape:collect="always">
      <circle
         id="circle5532"
         r="0.45"
         cy="0.810"
         cx="2.567"
         style="fill:black;stroke:none" />
      <circle
         id="circle5534"
         r="0.45"
         cy="2.33"
         cx="3.048"
         style="fill:black;stroke:none" />
      <circle
         id="circle5536"
         r="0.45"
         cy="2.415"
         cx="4.418"
         style="fill:black;stroke:none" />
      <circle
         id="circle5538"
         r="0.45"
         cy="3.029"
         cx="1.844"
         style="fill:black;stroke:none" />
      <circle
         id="circle5540"
         r="0.45"
         cy="1.363"
         cx="6.08"
         style="fill:black;stroke:none" />
      <circle
         id="circle5542"
         r="0.45"
         cy="4.413"
         cx="5.819"
         style="fill:black;stroke:none" />
      <circle
         id="circle5544"
         r="0.45"
         cy="4.048"
         cx="4.305"
         style="fill:black;stroke:none" />
      <circle
         id="circle5546"
         r="0.45"
         cy="3.045"
         cx="5.541"
         style="fill:black;stroke:none" />
      <circle
         id="circle5548"
         r="0.45"
         cy="5.527"
         cx="4.785"
         style="fill:black;stroke:none" />
      <circle
         id="circle5550"
         r="0.45"
         cy="5.184"
         cx="2.667"
         style="fill:black;stroke:none" />
      <circle
         id="circle5552"
         r="0.45"
         cy="1.448"
         cx="7.965"
         style="fill:black;stroke:none" />
      <circle
         id="circle5554"
         r="0.45"
         cy="5.049"
         cx="7.047"
         style="fill:black;stroke:none" />
      <circle
         id="circle5556"
         r="0.45"
         cy="0.895"
         cx="4.340"
         style="fill:black;stroke:none" />
      <circle
         id="circle5558"
         r="0.45"
         cy="0.340"
         cx="7.125"
         style="fill:black;stroke:none" />
      <circle
         id="circle5560"
         r="0.45"
         cy="1.049"
         cx="9.553"
         style="fill:black;stroke:none" />
      <circle
         id="circle5562"
         r="0.45"
         cy="2.689"
         cx="7.006"
         style="fill:black;stroke:none" />
      <circle
         id="circle5564"
         r="0.45"
         cy="2.689"
         cx="8.909"
         style="fill:black;stroke:none" />
      <circle
         id="circle5566"
         r="0.45"
         cy="4.407"
         cx="9.315"
         style="fill:black;stroke:none" />
      <circle
         id="circle5568"
         r="0.45"
         cy="3.870"
         cx="7.820"
         style="fill:black;stroke:none" />
      <circle
         id="circle5570"
         r="0.45"
         cy="5.948"
         cx="8.270"
         style="fill:black;stroke:none" />
      <circle
         id="circle5572"
         r="0.45"
         cy="7.428"
         cx="7.973"
         style="fill:black;stroke:none" />
      <circle
         id="circle5574"
         r="0.45"
         cy="8.072"
         cx="9.342"
         style="fill:black;stroke:none" />
      <circle
         id="circle5576"
         r="0.45"
         cy="9.315"
         cx="8.206"
         style="fill:black;stroke:none" />
      <circle
         id="circle5578"
         r="0.45"
         cy="9.475"
         cx="9.682"
         style="fill:black;stroke:none" />
      <circle
         id="circle5580"
         r="0.45"
         cy="6.186"
         cx="9.688"
         style="fill:black;stroke:none" />
      <circle
         id="circle5582"
         r="0.45"
         cy="6.296"
         cx="3.379"
         style="fill:black;stroke:none" />
      <circle
         id="circle5584"
         r="0.45"
         cy="8.204"
         cx="2.871"
         style="fill:black;stroke:none" />
      <circle
         id="circle5586"
         r="0.45"
         cy="8.719"
         cx="4.59"
         style="fill:black;stroke:none" />
      <circle
         id="circle5588"
         r="0.45"
         cy="9.671"
         cx="3.181"
         style="fill:black;stroke:none" />
      <circle
         id="circle5590"
         r="0.45"
         cy="7.315"
         cx="5.734"
         style="fill:black;stroke:none" />
      <circle
         id="circle5592"
         r="0.45"
         cy="6.513"
         cx="6.707"
         style="fill:black;stroke:none" />
      <circle
         id="circle5594"
         r="0.45"
         cy="9.670"
         cx="5.730"
         style="fill:black;stroke:none" />
      <circle
         id="circle5596"
         r="0.45"
         cy="8.373"
         cx="6.535"
         style="fill:black;stroke:none" />
      <circle
         id="circle5598"
         r="0.45"
         cy="7.154"
         cx="4.37"
         style="fill:black;stroke:none" />
      <circle
         id="circle5600"
         r="0.45"
         cy="7.25"
         cx="0.622"
         style="fill:black;stroke:none" />
      <circle
         id="circle5602"
         r="0.45"
         cy="5.679"
         cx="0.831"
         style="fill:black;stroke:none" />
      <circle
         id="circle5604"
         r="0.45"
         cy="8.519"
         cx="1.257"
         style="fill:black;stroke:none" />
      <circle
         id="circle5606"
         r="0.45"
         cy="6.877"
         cx="1.989"
         style="fill:black;stroke:none" />
      <circle
         id="circle5608"
         r="0.45"
         cy="3.181"
         cx="0.374"
         style="fill:black;stroke:none" />
      <circle
         id="circle5610"
         r="0.45"
         cy="1.664"
         cx="1.166"
         style="fill:black;stroke:none" />
      <circle
         id="circle5612"
         r="0.45"
         cy="0.093"
         cx="1.151"
         style="fill:black;stroke:none" />
      <circle
         id="circle5614"
         r="0.45"
         cy="10.093"
         cx="1.151"
         style="fill:black;stroke:none" />
      <circle
         id="circle5616"
         r="0.45"
         cy="4.451"
         cx="1.302"
         style="fill:black;stroke:none" />
      <circle
         id="circle5618"
         r="0.45"
         cy="3.763"
         cx="3.047"
         style="fill:black;stroke:none" />
    </pattern>
    <radialGradient
       inkscape:collect="always"
       xlink:href="#linearGradient6871"
       id="radialGradient6877"
       cx="26.711607"
       cy="989.36548"
       fx="26.711607"
       fy="989.36548"
       r="48.728405"
       gradientTransform="matrix(1.274447,0.43966546,-0.63525319,1.8413922,620.07004,-842.30325)"
       gradientUnits="userSpaceOnUse" />
    <radialGradient
       inkscape:collect="always"
       xlink:href="#linearGradient6883"
       id="radialGradient6889"
       cx="20.156212"
       cy="989.99268"
       fx="20.156212"
       fy="989.99268"
       r="5.929703"
       gradientTransform="matrix(-0.07323465,2.3849651,-1.7137118,-0.05262265,1718.1119,991.5991)"
       gradientUnits="userSpaceOnUse" />
  </defs>
  <sodipodi:namedview
     id="base"
     pagecolor="#ffffff"
     bordercolor="#666666"
     borderopacity="1.0"
     inkscape:pageopacity="0.0"
     inkscape:pageshadow="2"
     inkscape:zoom="1.4142136"
     inkscape:cx="63.680593"
     inkscape:cy="62.034507"
     inkscape:document-units="mm"
     inkscape:current-layer="layer1"
     showgrid="false"
     inkscape:window-width="1416"
     inkscape:window-height="1064"
     inkscape:window-x="759"
     inkscape:window-y="124"
     inkscape:window-maximized="0"
     showguides="false"
     inkscape:snap-global="false"
     fit-margin-top="1"
     fit-margin-right="1"
     fit-margin-bottom="1"
     fit-margin-left="1" />
  <metadata
     id="metadata7">
    <rdf:RDF>
      <cc:Work
         rdf:about="">
        <dc:format>image/svg+xml</dc:format>
        <dc:type
           rdf:resource="http://purl.org/dc/dcmitype/StillImage" />
        <dc:title>apple - coloured</dc:title>
        <dc:date>2015-02-12</dc:date>
        <dc:creator>
          <cc:Agent>
            <dc:title>Frank Tremmel</dc:title>
          </cc:Agent>
        </dc:creator>
        <cc:license
           rdf:resource="http://creativecommons.org/publicdomain/zero/1.0/" />
        <dc:language></dc:language>
        <dc:subject>
          <rdf:Bag>
            <rdf:li>apple</rdf:li>
            <rdf:li>fruit</rdf:li>
            <rdf:li>food</rdf:li>
            <rdf:li>apfel</rdf:li>
            <rdf:li>nahrung</rdf:li>
            <rdf:li>frucht</rdf:li>
            <rdf:li>line art</rdf:li>
            <rdf:li>outline</rdf:li>
            <rdf:li></rdf:li>
          </rdf:Bag>
        </dc:subject>
        <dc:description>coloured line art apple</dc:description>
      </cc:Work>
      <cc:License
         rdf:about="http://creativecommons.org/publicdomain/zero/1.0/">
        <cc:permits
           rdf:resource="http://creativecommons.org/ns#Reproduction" />
        <cc:permits
           rdf:resource="http://creativecommons.org/ns#Distribution" />
        <cc:permits
           rdf:resource="http://creativecommons.org/ns#DerivativeWorks" />
      </cc:License>
    </rdf:RDF>
  </metadata>
  <g
     inkscape:label="Ebene 1"
     inkscape:groupmode="layer"
     id="layer1"
     transform="translate(2.1973874,-943.52914)">
    <path
       style="fill:#00500d;fill-opacity:1;fill-rule:evenodd;stroke:#ff6600;stroke-width:0.35433075;stroke-linecap:butt;stroke-linejoin:miter;stroke-miterlimit:4;stroke-dasharray:none;stroke-opacity:1"
       d="m 73.79235,954.16138 c -0.487326,0.1215 -3.639056,1.7315 -5.976172,4.97436 -2.233428,1.63406 -3.866829,16.4418 -2.446939,16.6125 1.577546,0.43797 3.236761,1.50321 4.747332,0.46953 1.128841,1.39833 3.791094,2.30092 6.326301,1.4979 2.294595,1.71966 4.070526,1.93871 6.525498,1.78681 5.072521,-8.24323 7.382938,-12.85077 7.717266,-17.83262 -1.38208,-0.29215 -3.493099,-1.83077 -5.214409,-1.87726 -1.156415,-2.61282 -3.403873,-3.92888 -5.665518,-3.81426 -0.268586,-2.66971 -2.737619,-3.51646 -6.013359,-1.81696 z"
       id="path4166-6"
       inkscape:connector-curvature="0"
       sodipodi:nodetypes="cccccccccc" />
    <path
       style="fill:#009502;fill-opacity:1;fill-rule:evenodd;stroke:#ff6600;stroke-width:0.35433075;stroke-linecap:butt;stroke-linejoin:miter;stroke-miterlimit:4;stroke-dasharray:none;stroke-opacity:1"
       d="m 91.140056,961.93533 c -1.648443,8.28587 -4.138019,12.20521 -8.187834,17.92648 0,0 8.566486,0.28009 12.893477,-2.25255 2.29255,-1.34185 7.118101,-5.75544 7.529041,-11.45041 0.39656,-5.49562 -1.69503,-12.76119 -4.79976,-17.45721 -2.184213,0.20192 -7.327241,9.47292 -7.434924,13.23369 z"
       id="path4170-9"
       inkscape:connector-curvature="0"
       sodipodi:nodetypes="ccsscc" />
    <path
       style="fill:#042900;fill-opacity:1;fill-rule:evenodd;stroke:#d40000;stroke-width:0.35433075;stroke-linecap:butt;stroke-linejoin:miter;stroke-miterlimit:4;stroke-dasharray:none;stroke-opacity:1"
       d="m 57.707543,961.68596 3.10573,-4.31738 c 1.28621,-1.36919 2.583714,-0.73386 3.858632,-0.56313 1.686293,0.22583 2.23704,1.35608 2.917503,2.25255 l -0.847017,2.34639 c 0,0 -2.166231,-1.34483 -3.388068,-1.40784 -1.962515,-0.10123 -5.64678,1.68941 -5.64678,1.68941 z"
       id="path4267"
       inkscape:connector-curvature="0"
       sodipodi:nodetypes="ccsccsc" />
    <path
       style="fill:url(#pattern5934);fill-opacity:1;fill-rule:evenodd;stroke:#ff6600;stroke-width:0.35433075;stroke-linecap:butt;stroke-linejoin:miter;stroke-miterlimit:4;stroke-dasharray:none;stroke-opacity:1;opacity:0.52"
       d="m 73.919531,953.96348 c -0.48733,0.1215 -3.63906,1.7315 -5.97618,4.97436 -2.23342,1.63406 -3.86683,16.44184 -2.44694,16.61254 1.57755,0.4379 3.23677,1.5032 4.74734,0.4695 1.12884,1.3983 3.79109,2.3009 6.3263,1.4979 2.29459,1.7196 4.07052,1.9387 6.5255,1.7868 5.07252,-8.2432 7.38293,-12.85077 7.71726,-17.83262 -1.38208,-0.29215 -3.4931,-1.83077 -5.21441,-1.87726 -1.15641,-2.61282 -3.40387,-3.92888 -5.66551,-3.81426 -0.26859,-2.66971 -2.73762,-3.51646 -6.01336,-1.81696 z"
       id="path4166-6-2"
       inkscape:connector-curvature="0"
       sodipodi:nodetypes="cccccccccc" />
    <path
       style="fill:url(#pattern5842);fill-opacity:1;fill-rule:evenodd;stroke:#ff6600;stroke-width:0.35433072;stroke-linecap:butt;stroke-linejoin:miter;stroke-miterlimit:4;stroke-dasharray:none;stroke-opacity:1;opacity:0.361"
       d="m 91.285218,961.96763 c -1.64845,8.28587 -4.13802,12.20521 -8.18784,17.92648 0,0 8.56649,0.28009 12.89348,-2.25255 2.29255,-1.34185 7.118102,-5.75544 7.529042,-11.45041 0.39656,-5.49562 -1.69503,-12.76119 -4.799762,-17.45721 -2.18421,0.20192 -7.32724,9.47292 -7.43492,13.23369 z"
       id="path4170-9-4"
       inkscape:connector-curvature="0"
       sodipodi:nodetypes="ccsscc" />
    <path
       style="fill:url(#pattern6116);fill-opacity:1;fill-rule:evenodd;stroke:#d40000;stroke-width:0.35433075;stroke-linecap:butt;stroke-linejoin:miter;stroke-miterlimit:4;stroke-dasharray:none;stroke-opacity:1"
       d="m 56.841944,961.83831 3.10573,-4.31738 c 1.28621,-1.36919 2.58371,-0.73386 3.85863,-0.56313 1.68629,0.22583 2.23704,1.35608 2.9175,2.25255 l -0.84702,2.34639 c 0,0 -2.16623,-1.34483 -3.38806,-1.40784 -1.96252,-0.10123 -5.64678,1.68941 -5.64678,1.68941 z"
       id="path4267-7"
       inkscape:connector-curvature="0"
       sodipodi:nodetypes="ccsccsc" />
    <path
       style="color:#000000;font-style:normal;font-variant:normal;font-weight:normal;font-stretch:normal;font-size:medium;line-height:normal;font-family:sans-serif;text-indent:0;text-align:start;text-decoration:none;text-decoration-line:none;text-decoration-style:solid;text-decoration-color:#000000;letter-spacing:normal;word-spacing:normal;text-transform:none;direction:ltr;block-progression:tb;writing-mode:lr-tb;baseline-shift:baseline;text-anchor:start;white-space:normal;clip-rule:nonzero;display:inline;overflow:visible;visibility:visible;opacity:1;isolation:auto;mix-blend-mode:normal;color-interpolation:sRGB;color-interpolation-filters:linearRGB;solid-color:#000000;solid-opacity:1;fill:#000000;fill-opacity:1;fill-rule:evenodd;stroke:none;stroke-width:2.83464575;stroke-linecap:butt;stroke-linejoin:miter;stroke-miterlimit:4;stroke-dasharray:none;stroke-dashoffset:0;stroke-opacity:1;color-rendering:auto;image-rendering:auto;shape-rendering:auto;text-rendering:auto;enable-background:accumulate"
       d="m 99.11873,947.07424 c -2.814475,-0.082 -4.283031,2.66956 -5.692927,4.65047 -1.563678,2.54076 -2.938804,5.25587 -3.703079,8.1465 -2.001766,-0.51211 -3.746071,-1.39438 -4.877974,-3.22516 -1.036962,-1.45268 -3.388061,-1.20291 -4.223397,-2.44246 -0.96571,-2.12262 -3.634953,-2.69529 -5.666179,-1.87177 -2.991997,0.9284 -5.609892,2.85699 -7.594285,5.25224 -1.666974,-1.02904 -3.649152,-2.49694 -5.69359,-1.5333 -2.258978,1.00121 -3.192964,3.40316 -4.616007,5.2482 -1.30222,1.28577 1.250437,2.49535 2.216763,1.28233 1.757282,-0.94208 3.934672,-2.40198 5.92706,-1.24828 -1.289664,4.18921 -1.781178,8.61235 -1.786742,12.98187 -0.293561,2.38065 1.819567,3.45876 3.81288,3.79911 1.83902,0.11565 3.266623,0.0841 4.846905,1.19548 2.170671,0.74955 4.382369,-0.31801 6.279192,1.19885 1.706381,0.70466 2.874471,0.82279 4.885918,0.77515 4.655887,-0.0328 9.630224,-0.2868 13.683465,-2.80628 4.721817,-3.16055 8.147347,-8.66419 7.798417,-14.46166 -0.28431,-5.99987 -2.18719,-11.97374 -5.59642,-16.94129 z m -2.017974,3.71856 c -0.987523,6.34354 -0.128669,13.19107 -0.881801,19.546 -0.313959,2.10755 -0.899912,4.1778 -1.773523,6.12349 -2.256567,2.23481 -5.829469,3.06631 -8.768096,1.73898 3.034107,-4.98566 5.922636,-10.25604 6.695036,-16.12312 0.918047,-4.13845 2.138654,-9.19351 4.728384,-11.28535 z m 1.668873,0.17822 c 2.160831,4.69483 3.812071,9.80673 3.644401,15.0254 -0.42869,3.4456 -2.35343,6.57412 -4.816989,8.96359 1.820285,-6.45839 0.178077,-13.18289 0.746781,-19.75979 0.07996,-1.4148 0.20056,-2.82933 0.425807,-4.2292 z m -21.271594,3.39935 c 2.051383,1.2114 -0.483808,2.53691 -1.56741,3.46732 -1.401814,1.32841 -2.521615,2.94123 -3.330289,4.69022 -1.227639,-1.10929 -4.733539,-2.18939 -2.268712,-3.8126 1.540375,-1.77649 3.344431,-3.52903 5.755893,-3.96072 0.465959,-0.14155 0.932959,-0.28632 1.410518,-0.38422 z m -14.256648,3.23422 c 0.85824,-0.0594 3.613292,1.67362 1.980761,1.76963 -1.390351,-1.085 -4.473316,0.56008 -4.771102,0.27049 0.596016,-0.97023 1.552286,-2.05747 2.790341,-2.04012 z m 17.008277,-0.50976 c 1.629248,-0.0657 3.67858,2.14027 3.295793,3.24431 -2.161825,0.8852 -3.085761,3.81333 -4.601762,4.7749 -1.646635,0.17446 -5.642991,-0.65543 -4.1443,-2.81975 1.129576,-2.3246 3.199176,-4.02263 5.450269,-5.19946 z m 5.618251,3.64542 c 1.667547,0.79072 4.100963,2.00206 2.793116,4.14201 -0.436007,1.36602 -0.921138,3.50895 -1.713464,4.26895 -1.354093,-1.85363 -3.964219,-2.83635 -5.617416,-3.65252 0.714492,-1.82146 1.783351,-3.65902 3.713894,-4.39435 0.270904,-0.12953 0.546462,-0.24915 0.82387,-0.36409 z m -17.638245,0.96026 c 0.926308,1.29565 3.862107,1.77039 3.421476,3.4086 -0.955091,3.23386 -1.297566,6.60101 -2.035956,9.88317 -1.525228,2.06628 -4.074517,-0.12675 -3.814317,-2.18741 -0.149953,-3.82032 1.221921,-7.5363 2.428797,-11.10436 z m 5.342382,3.56624 c 1.423308,1.08417 4.250861,1.00613 4.983657,2.08979 -1.474473,2.80962 -2.559053,5.92157 -2.472016,9.14066 -1.469647,1.84893 -5.261158,0.47803 -4.446947,-1.91567 0.642065,-3.10496 0.970297,-6.28269 1.935306,-9.31478 z m 6.950245,2.20708 c 2.322112,0.39681 4.218231,1.84446 5.682072,3.61961 -1.326773,2.33822 -2.448391,4.86742 -4.152267,6.94475 -1.588119,1.3716 -4.90138,-0.46073 -4.047156,-2.51906 0.256578,-2.83645 1.400175,-5.46102 2.517351,-8.0453 z"
       id="path4166"
       inkscape:connector-curvature="0"
       sodipodi:nodetypes="cccccccccccccccccccccccccccccccccccccccccccccccccccccccccccccccccc" />
    <path
       style="color:#000000;display:inline;overflow:visible;visibility:visible;opacity:1;fill:url(#radialGradient6877);fill-opacity:1;fill-rule:evenodd;stroke:#ff0000;stroke-width:0.7086615;stroke-linecap:square;stroke-linejoin:round;stroke-miterlimit:4;stroke-dasharray:none;stroke-dashoffset:0;stroke-opacity:1;marker:none;enable-background:accumulate"
       d="m 99.798434,1007.753 c 1e-5,20.8451 -19.196775,38.0068 -40.823859,41.2494 -2.681385,0.4021 -5.585472,-0.7036 -8.303117,-0.7036 -3.112339,0 -6.198295,0.6654 -9.214872,0.1408 -20.862507,-3.6275 -38.4063101,-20.2169 -38.4062996,-40.6866 0,-17.6097 10.8817506,-40.1903 35.5003146,-40.40296 5.576997,-0.0481 6.942276,3.04838 13.06199,3.04838 6.692157,0 7.221656,-2.90447 13.346841,-2.70687 27.243282,0.8789 34.839002,22.99614 34.839002,40.06145 z"
       id="path4157-9"
       inkscape:connector-curvature="0"
       sodipodi:nodetypes="sssssssss" />
    <path
       style="color:#000000;font-style:normal;font-variant:normal;font-weight:normal;font-stretch:normal;font-size:medium;line-height:normal;font-family:sans-serif;text-indent:0;text-align:start;text-decoration:none;text-decoration-line:none;text-decoration-style:solid;text-decoration-color:#000000;letter-spacing:normal;word-spacing:normal;text-transform:none;direction:ltr;block-progression:tb;writing-mode:lr-tb;baseline-shift:baseline;text-anchor:start;white-space:normal;clip-rule:nonzero;display:inline;overflow:visible;visibility:visible;opacity:1;isolation:auto;mix-blend-mode:normal;color-interpolation:sRGB;color-interpolation-filters:linearRGB;solid-color:#000000;solid-opacity:1;fill:#7a0000;fill-opacity:1;fill-rule:evenodd;stroke:none;stroke-width:2.83464575;stroke-linecap:square;stroke-linejoin:round;stroke-miterlimit:4;stroke-dasharray:none;stroke-dashoffset:0;stroke-opacity:1;marker:none;color-rendering:auto;image-rendering:auto;shape-rendering:auto;text-rendering:auto;enable-background:accumulate"
       d="m 38.326736,966.06485 c -12.765333,0.11027 -22.148871,6.10428 -28.173605,14.28545 -6.0247344,8.18118 -8.8072104,18.49504 -8.8072113,27.606 -1.9e-6,21.3186 18.1605963,38.4188 39.6427433,42.1541 3.39704,0.5907 6.573354,-0.117 9.472178,-0.117 2.311304,0 5.288675,1.1711 8.525167,0.6857 22.264913,-3.3381 42.096742,-20.9657 42.096732,-42.7228 0,-8.75317 -1.923323,-18.82177 -7.46286,-26.93873 -5.539535,-8.11698 -14.800189,-14.15955 -28.822102,-14.61191 -3.300396,-0.10647 -5.33898,0.68721 -7.071708,1.3879 -1.732729,0.70067 -3.195035,1.31809 -6.324393,1.31808 -2.807193,0 -4.353788,-0.65888 -6.147343,-1.42279 -1.793554,-0.76392 -3.860822,-1.65048 -6.927598,-1.624 z m 0.02676,2.97904 c 2.510222,-0.0217 3.914102,0.61353 5.727363,1.38584 1.813261,0.77231 4.008291,1.66301 7.320814,1.66301 3.562802,0 5.712097,-0.83562 7.448454,-1.53777 1.736357,-0.70215 3.026096,-1.26139 5.850888,-1.17027 13.221369,0.42654 20.580676,7.74078 25.64982,15.1685 5.069146,7.42771 4.814534,15.6218 4.814534,23.934 1.1e-5,19.9328 -15.634814,36.0988 -36.624049,39.2458 -2.126292,0.3188 -5.488873,-2.0481 -8.612866,-2.0481 -3.325856,0 -5.789007,1.9501 -8.425115,1.4917 -20.242859,-3.5198 -34.5083027,-18.2724 -34.5083006,-37.893 0,-8.4988 -0.00401,-17.48122 5.5667926,-25.04596 5.570783,-7.56473 13.938438,-15.09135 25.791665,-15.19375 z"
       id="path4157"
       inkscape:connector-curvature="0"
       sodipodi:nodetypes="ssssscssssssscsssssscscssc" />
    <path
       style="fill:url(#pattern6439);fill-opacity:1;fill-rule:evenodd;stroke:none;stroke-width:1px;stroke-linecap:butt;stroke-linejoin:miter;stroke-opacity:1;opacity:0.417"
       d="m 45.532321,969.9925 c -1.958423,7.5728 -4.805235,6.63148 -6.81853,9.09137 2.49274,0.72497 6.685988,1.88776 9.848987,3.28299 2.741786,0.78978 8.124338,0.16665 12.753176,-1.01015 -3.537982,-1.70541 -5.132003,-4.18783 -6.439722,-10.6066 z"
       id="path6347"
       inkscape:connector-curvature="0"
       sodipodi:nodetypes="cccccc" />
    <path
       style="fill:#4b0000;fill-opacity:1;fill-rule:evenodd;stroke:#ffb380;stroke-width:0.35433075;stroke-linecap:butt;stroke-linejoin:round;stroke-miterlimit:4;stroke-dasharray:none;stroke-opacity:1"
       d="m 46.406862,981.28574 c 0.0975,-8.61774 0.172906,-16.41936 4.296895,-25.48327 3.67326,5.21475 8.018628,2.62481 10.021648,1.01632 -6.326564,7.32422 -7.744177,17.03112 -8.28194,26.27966 -1.568545,0.58127 -4.468058,-0.40325 -6.036603,-1.81271 z"
       id="path4162-6"
       inkscape:connector-curvature="0"
       sodipodi:nodetypes="ccccc" />
    <path
       style="fill:#923e00;fill-opacity:1;fill-rule:evenodd;stroke:#ff0000;stroke-width:0.35433072;stroke-linecap:butt;stroke-linejoin:miter;stroke-miterlimit:4;stroke-dasharray:none;stroke-opacity:1"
       d="m 50.646144,954.44793 c 0.506945,-3.97291 10.215852,-3.52582 10.516181,0.46913 0.21179,2.8173 -3.818683,4.09118 -6.515462,3.51856 -3.097299,-0.65765 -4.209614,-2.35056 -4.000719,-3.98769 z"
       id="path4164-1"
       inkscape:connector-curvature="0"
       sodipodi:nodetypes="ssss" />
    <path
       style="fill:url(#pattern6850);fill-opacity:1;fill-rule:evenodd;stroke:#ffb380;stroke-width:0.35433075;stroke-linecap:butt;stroke-linejoin:round;stroke-miterlimit:4;stroke-dasharray:none;stroke-opacity:1;opacity:0.429"
       d="m 46.201795,981.23656 c 0.0975,-8.61774 0.17291,-16.41936 4.2969,-25.48327 3.67326,5.21475 8.01862,2.62481 10.02164,1.01632 -6.32656,7.32422 -7.74417,17.03112 -8.28194,26.27966 -1.56854,0.58128 -4.46805,-0.40325 -6.0366,-1.81271 z"
       id="path4162-6-3"
       inkscape:connector-curvature="0"
       sodipodi:nodetypes="ccccc" />
    <path
       style="color:#000000;font-style:normal;font-variant:normal;font-weight:normal;font-stretch:normal;font-size:medium;line-height:normal;font-family:sans-serif;text-indent:0;text-align:start;text-decoration:none;text-decoration-line:none;text-decoration-style:solid;text-decoration-color:#000000;letter-spacing:normal;word-spacing:normal;text-transform:none;direction:ltr;block-progression:tb;writing-mode:lr-tb;baseline-shift:baseline;text-anchor:start;white-space:normal;clip-rule:nonzero;display:inline;overflow:visible;visibility:visible;opacity:1;isolation:auto;mix-blend-mode:normal;color-interpolation:sRGB;color-interpolation-filters:linearRGB;solid-color:#000000;solid-opacity:1;fill:#210000;fill-opacity:1;fill-rule:evenodd;stroke:none;stroke-width:2.83464575;stroke-linecap:butt;stroke-linejoin:miter;stroke-miterlimit:4;stroke-dasharray:none;stroke-dashoffset:0;stroke-opacity:1;color-rendering:auto;image-rendering:auto;shape-rendering:auto;text-rendering:auto;enable-background:accumulate"
       d="m 55.132081,950.87654 c -1.964065,0.0714 -4.057176,0.78324 -4.969754,2.62386 -0.579996,1.37571 -1.273739,2.72886 -1.741679,4.16779 -2.510425,6.90289 -2.658136,14.33577 -2.639281,21.59243 0.02931,0.22915 0.01934,0.47326 0.0082,0.71859 -1.810332,-0.66744 -3.232826,-1.95273 -4.741236,-2.14344 -1.922963,-0.11504 -3.004439,0.31707 -4.854464,0.81919 -2.617132,1.04444 -2.512402,2.09064 -2.713396,3.13508 2.446794,-0.68939 5.675422,-1.40032 8.241063,-0.73501 0.972998,0.47927 2.025844,0.43432 3.040732,0.85204 2.606136,1.76905 5.33359,3.66257 8.45311,2.36517 2.188493,-0.23649 4.04812,-1.57095 6.163814,-2.06542 2.032587,-0.0229 2.616615,1.16186 3.331011,1.47823 1.342001,0.51734 1.882919,0.38121 0.475565,-1.34478 -1.482399,-0.96577 -2.87091,-3.50379 -4.70418,-2.99136 -1.719595,0.36373 -3.2491,1.38416 -4.94299,1.79441 0.0023,-0.48882 5.27e-4,-0.97915 0.09882,-1.42485 0.568548,-7.09041 1.884006,-14.42423 5.943529,-20.42833 0.714575,-1.21322 2.177327,-2.04245 2.217243,-3.58677 0.297587,-2.1946 -1.624199,-3.95237 -3.602762,-4.46138 -0.725362,-0.21488 -1.478782,-0.32374 -2.233714,-0.35929 -0.271485,-0.0145 -0.549084,-0.0164 -0.829664,-0.006 z m 0.776138,1.72049 c 1.149964,0.31507 3.715126,1.39137 4.146264,2.53969 -0.203012,2.06174 -3.108315,2.82309 -4.492129,2.77373 -1.393683,0.026 -4.826142,-0.98458 -3.693347,-3.8434 0.455221,-0.83276 3.12456,-1.35004 4.039212,-1.47002 z m -4.378901,5.71583 c 1.27556,0.96034 2.903318,1.38193 4.485954,1.38789 -3.40251,5.98356 -3.650295,13.26199 -4.100974,19.99924 -0.07842,0.8611 -1.229469,1.86226 -2.569284,1.26881 -0.896026,-0.33803 -1.894725,-0.0128 -1.877554,-1.21954 0.07274,-7.31704 1.48143,-14.58971 4.061858,-21.4364 z"
       id="path4160"
       inkscape:connector-curvature="0" />
    <path
       style="fill:url(#radialGradient6889);fill-rule:evenodd;stroke:#000000;stroke-width:1.77165353;stroke-linecap:butt;stroke-linejoin:round;stroke-miterlimit:4;stroke-dasharray:none;stroke-opacity:0.47863248;fill-opacity:1;opacity:1"
       d="m 23.352024,983.673 c -2.093107,-0.51943 -4.224876,1.76426 -5.430288,3.60109 -4.749182,7.23688 1.163408,15.23621 1.564659,14.87821 0,0 -0.885373,-8.90397 1.380581,-12.13001 1.052175,-1.49798 4.496135,0.10902 5.154173,-1.61102 0.649918,-1.69881 -0.945167,-4.31046 -2.669125,-4.73827 z"
       id="path4180"
       inkscape:connector-curvature="0"
       sodipodi:nodetypes="sscsss" />
    <path
       style="opacity:0.37300002;fill:url(#pattern6621);fill-opacity:1;fill-rule:evenodd;stroke:none;stroke-width:1px;stroke-linecap:butt;stroke-linejoin:miter;stroke-opacity:1"
       d="m 72.048824,969.23488 c 0.463889,-0.23194 10.455668,10.73856 13.938066,21.71509 2.715248,8.55847 -4.953699,27.43023 -7.372073,32.32813 -6.052337,12.2578 -11.333291,19.2376 -26.516504,23.7385 2.54379,-0.1131 2.086484,0.6195 5.3033,2.5255 0,0 16.248111,-4.7454 23.081985,-11.0107 9.297052,-8.5235 14.773498,-20.7861 15.354321,-33.3856 1.107623,-24.02719 -20.327911,-35.7014 -23.789095,-35.91092 z"
       id="path6345"
       inkscape:connector-curvature="0"
       sodipodi:nodetypes="cssccssc" />
  </g>
</svg>
