<?xml version="1.0" encoding="UTF-8" standalone="no"?>
<!-- Created with Inkscape (http://www.inkscape.org/) -->

<svg
   xmlns:dc="http://purl.org/dc/elements/1.1/"
   xmlns:cc="http://creativecommons.org/ns#"
   xmlns:rdf="http://www.w3.org/1999/02/22-rdf-syntax-ns#"
   xmlns:svg="http://www.w3.org/2000/svg"
   xmlns="http://www.w3.org/2000/svg"
   xmlns:sodipodi="http://sodipodi.sourceforge.net/DTD/sodipodi-0.dtd"
   xmlns:inkscape="http://www.inkscape.org/namespaces/inkscape"
   width="125.54015"
   height="134.92384"
   viewBox="0 0 255.54015 214.92384"
   id="svg2"
   version="1.1"
   inkscape:version="0.91 r13725"
   sodipodi:docname="question_mark_cartoony_with_eyes_monsterbrain.svg">
  <title
     id="title4250">Question Mark Cartoon</title>
  <defs
     id="defs4">
    <filter
       inkscape:collect="always"
       style="color-interpolation-filters:sRGB"
       id="filter4214"
       x="-0.047237881"
       width="1.0944757"
       y="-0.029081514"
       height="1.048163">
      <feGaussianBlur
         inkscape:collect="always"
         stdDeviation="1.9895178"
         id="feGaussianBlur4216" />
    </filter>
    <filter
       inkscape:collect="always"
       style="color-interpolation-filters:sRGB"
       id="filter4228"
       x="-0.093599997"
       width="1.1872"
       y="-0.093599997"
       height="1.1872">
      <feGaussianBlur
         inkscape:collect="always"
         stdDeviation="1.4799359"
         id="feGaussianBlur4230" />
    </filter>
  </defs>
  <sodipodi:namedview
     id="base"
     pagecolor="#ffffff"
     bordercolor="#666666"
     borderopacity="1.0"
     inkscape:pageopacity="0.0"
     inkscape:pageshadow="2"
     inkscape:zoom="2.6720902"
     inkscape:cx="133.91601"
     inkscape:cy="85.369188"
     inkscape:document-units="px"
     inkscape:current-layer="layer1"
     showgrid="false"
     fit-margin-top="0"
     fit-margin-left="0"
     fit-margin-right="0"
     fit-margin-bottom="0"
     units="px"
     inkscape:window-width="1600"
     inkscape:window-height="838"
     inkscape:window-x="-8"
     inkscape:window-y="-8"
     inkscape:window-maximized="1" />
  <metadata
     id="metadata7">
    <rdf:RDF>
      <cc:Work
         rdf:about="">
        <dc:format>image/svg+xml</dc:format>
        <dc:type
           rdf:resource="http://purl.org/dc/dcmitype/StillImage" />
        <dc:title>Question Mark Cartoon</dc:title>
      </cc:Work>
    </rdf:RDF>
  </metadata>
  <g
     inkscape:label="Layer 1"
     inkscape:groupmode="layer"
     id="layer1"
     transform="translate(-12.834719,-14.110333)">
    <circle
       style="opacity:1;fill:#555753;fill-opacity:1;stroke:none;stroke-width:1.7946552;stroke-linecap:round;stroke-linejoin:round;stroke-miterlimit:4;stroke-dasharray:none;stroke-dashoffset:0;stroke-opacity:1;filter:url(#filter4228)"
       id="circle4218"
       cx="211.89894"
       cy="206.50879"
       r="18.973537"
       transform="matrix(0.83170296,0,0,0.83170296,-32.881314,33.859868)" />
    <path
       style="opacity:1;fill:#555753;fill-opacity:1;stroke:none;stroke-width:1.7946552;stroke-linecap:round;stroke-linejoin:round;stroke-miterlimit:4;stroke-dasharray:none;stroke-dashoffset:0;stroke-opacity:1;filter:url(#filter4214)"
       d="m 204.0605,18.885176 c -27.91275,-6.28e-4 -50.54093,22.626772 -50.54127,50.539522 0.007,3.017368 0.37541,6.012702 0.82723,8.996058 2.2692,12.79838 11.93913,20.03753 21.23791,20.56317 11.4984,1.6e-4 20.82,-9.32065 20.8208,-20.81905 -0.0109,-9.403681 -6.32369,-17.632853 -15.40353,-20.079454 1.7202,-5.815769 6.20504,-12.415813 16.81087,-17.327886 31.76975,-11.693272 63.23515,18.338313 42.43027,48.64497 -11.09308,22.283224 -67.66075,44.590774 -48.10517,84.963944 4.3656,9.73863 15.36613,9.50209 20.36879,7.79983 5.00265,-1.70226 15.99388,-15.61802 6.49778,-33.65816 -9.4961,-18.04013 35.1069,-43.15191 35.59585,-79.083422 C 254.59968,41.51263 231.97257,18.885512 204.0605,18.885176 Z"
       id="path4200"
       inkscape:connector-curvature="0"
       sodipodi:nodetypes="ccccccccczzcc"
       transform="matrix(0.83170296,0,0,0.83170296,-32.881314,33.859868)" />
    <path
       sodipodi:nodetypes="ccccccccczzcc"
       inkscape:connector-curvature="0"
       id="path4174"
       d="m 135.90264,47.387936 c -23.21512,-5.21e-4 -42.035049,18.818754 -42.035329,42.033871 0.0058,2.509554 0.312234,5.000782 0.688015,7.482047 1.887296,10.644456 9.929804,16.665276 17.663634,17.102456 9.56326,1.2e-4 17.31605,-7.75201 17.31672,-17.315272 -0.009,-7.821069 -5.25943,-14.665296 -12.81116,-16.700141 1.43069,-4.836992 5.16074,-10.326269 13.98164,-14.411654 26.423,-9.72533 52.59287,15.252029 35.28939,40.458167 -9.22615,18.53303 -56.27365,37.08628 -40.00922,70.66477 3.63088,8.09965 12.78007,7.90291 16.94079,6.48713 4.16072,-1.41577 13.30216,-12.98954 5.40422,-27.99358 -7.89794,-15.00404 29.19852,-35.88957 29.60517,-65.773923 -2.9e-4,-23.214551 -18.81932,-42.033591 -42.03387,-42.033871 z"
       style="opacity:1;fill:#fcaf3e;fill-opacity:1;stroke:#f57900;stroke-width:1.49261999;stroke-linecap:round;stroke-linejoin:round;stroke-miterlimit:4;stroke-dasharray:none;stroke-dashoffset:0;stroke-opacity:1" />
    <circle
       r="15.780347"
       cy="204.21318"
       cx="141.48813"
       id="circle4176"
       style="opacity:1;fill:#fcaf3e;fill-opacity:1;stroke:#f57900;stroke-width:1.49261999;stroke-linecap:round;stroke-linejoin:round;stroke-miterlimit:4;stroke-dasharray:none;stroke-dashoffset:0;stroke-opacity:1" />
    <path
       style="opacity:1;fill:#ffffff;fill-opacity:1;stroke:none;stroke-width:1.96517015;stroke-linecap:round;stroke-linejoin:round;stroke-miterlimit:4;stroke-dasharray:none;stroke-dashoffset:0;stroke-opacity:1"
       d="m 113.23108,81.802122 a 14.120538,14.120538 0 0 0 -5.97947,1.345208 16.623201,16.623201 0 0 1 1.18904,-0.04246 16.623201,16.623201 0 0 1 16.62333,16.623325 16.623201,16.623201 0 0 1 -0.74111,4.90686 14.120538,14.120538 0 0 0 3.02879,-8.713719 14.120538,14.120538 0 0 0 -14.12058,-14.119207 z"
       id="path4178"
       inkscape:connector-curvature="0" />
    <path
       style="opacity:1;fill:#ffffff;fill-opacity:1;stroke:none;stroke-width:1.7946552;stroke-linecap:round;stroke-linejoin:round;stroke-miterlimit:4;stroke-dasharray:none;stroke-dashoffset:0;stroke-opacity:1"
       d="m 136.06928,48.633059 c -7.90025,-1.78e-4 -15.27943,2.223542 -21.55235,6.074453 5.26267,-2.359441 11.09084,-3.68148 17.23168,-3.681341 23.29328,2.8e-4 42.17649,18.881908 42.17678,42.175199 -0.40804,29.98572 -37.63054,50.94298 -29.70582,65.9979 4.60723,8.75256 3.43293,16.33661 0.82427,21.43597 4.30717,-3.58334 9.82242,-13.65457 3.22376,-26.19031 -7.75169,-14.72624 28.65781,-35.22556 29.05694,-64.556608 -2.9e-4,-22.784747 -18.47052,-41.254989 -41.25526,-41.255263 z"
       id="path4183"
       inkscape:connector-curvature="0"
       sodipodi:nodetypes="ccccscscc" />
    <path
       style="opacity:1;fill:#ffffff;fill-opacity:1;stroke:none;stroke-width:1.7946552;stroke-linecap:round;stroke-linejoin:round;stroke-miterlimit:4;stroke-dasharray:none;stroke-dashoffset:0;stroke-opacity:1"
       d="m 142.12061,190.35928 a 13.733432,13.733432 0 0 0 -4.50267,0.77612 15.470913,15.470913 0 0 1 14.99382,15.44621 15.470913,15.470913 0 0 1 -2.81186,8.88094 13.733432,13.733432 0 0 0 6.05492,-11.37047 13.733432,13.733432 0 0 0 -13.73421,-13.7328 z"
       id="circle4188"
       inkscape:connector-curvature="0" />
    <path
       style="opacity:1;fill:#f57900;fill-opacity:1;stroke:none;stroke-width:1.7946552;stroke-linecap:round;stroke-linejoin:round;stroke-miterlimit:4;stroke-dasharray:none;stroke-dashoffset:0;stroke-opacity:1"
       d="m 129.06803,197.72687 a 13.912598,13.912598 0 0 0 -1.87753,6.95311 13.912598,13.912598 0 0 0 13.91338,13.9134 13.912598,13.912598 0 0 0 8.17903,-2.67957 15.487467,15.487467 0 0 1 -5.17151,0.90654 15.487467,15.487467 0 0 1 -15.48733,-15.48731 15.487467,15.487467 0 0 1 0.44396,-3.60617 z"
       id="circle4195"
       inkscape:connector-curvature="0" />
    <ellipse
       style="opacity:1;fill:#ffffff;fill-opacity:1;stroke:#2e3436;stroke-width:1.75956011;stroke-linecap:round;stroke-linejoin:round;stroke-miterlimit:4;stroke-dasharray:none;stroke-dashoffset:0;stroke-opacity:1"
       id="path4236"
       cx="114.93397"
       cy="47.460037"
       rx="11.194427"
       ry="16.956266" />
    <ellipse
       ry="16.956266"
       rx="11.194427"
       cy="41.776085"
       cx="149.91246"
       id="ellipse4238"
       style="opacity:1;fill:#ffffff;fill-opacity:1;stroke:#2e3436;stroke-width:1.75956011;stroke-linecap:round;stroke-linejoin:round;stroke-miterlimit:4;stroke-dasharray:none;stroke-dashoffset:0;stroke-opacity:1" />
    <circle
       style="opacity:1;fill:#000000;fill-opacity:1;stroke:none;stroke-width:2;stroke-linecap:round;stroke-linejoin:round;stroke-miterlimit:4;stroke-dasharray:none;stroke-dashoffset:0;stroke-opacity:1"
       id="path4240"
       cx="115.17204"
       cy="41.761127"
       r="4.7740941" />
    <circle
       r="4.7740941"
       cy="35.258484"
       cx="150.89543"
       id="circle4242"
       style="opacity:1;fill:#000000;fill-opacity:1;stroke:none;stroke-width:2;stroke-linecap:round;stroke-linejoin:round;stroke-miterlimit:4;stroke-dasharray:none;stroke-dashoffset:0;stroke-opacity:1" />
    <path
       id="ellipse4244"
       style="opacity:1;fill:none;fill-opacity:1;stroke:#2e3436;stroke-width:1.75956011;stroke-linecap:round;stroke-linejoin:round;stroke-miterlimit:4;stroke-dasharray:none;stroke-dashoffset:0;stroke-opacity:1"
       sodipodi:type="arc"
       sodipodi:cx="114.35192"
       sodipodi:cy="40.126415"
       sodipodi:rx="11.194427"
       sodipodi:ry="16.956266"
       sodipodi:start="3.9916204"
       sodipodi:end="5.2245345"
       sodipodi:open="true"
       d="m 106.96402,27.387194 a 11.194427,16.956266 0 0 1 12.87371,-2.041473" />
    <path
       d="M 141.70971,22.168864 A 11.194427,16.956266 0 0 1 154.58342,20.12739"
       sodipodi:open="true"
       sodipodi:end="5.2245345"
       sodipodi:start="3.9916204"
       sodipodi:ry="16.956266"
       sodipodi:rx="11.194427"
       sodipodi:cy="34.908085"
       sodipodi:cx="149.09761"
       sodipodi:type="arc"
       style="opacity:1;fill:none;fill-opacity:1;stroke:#2e3436;stroke-width:1.75956011;stroke-linecap:round;stroke-linejoin:round;stroke-miterlimit:4;stroke-dasharray:none;stroke-dashoffset:0;stroke-opacity:1"
       id="path4246" />
  </g>
</svg>
